<?xml version="1.0" standalone="no"?>
<!DOCTYPE svg PUBLIC "-//W3C//DTD SVG 20010904//EN"
 "http://www.w3.org/TR/2001/REC-SVG-20010904/DTD/svg10.dtd">
<svg version="1.0" xmlns="http://www.w3.org/2000/svg"
 width="1280.000000pt" height="1159.000000pt" viewBox="0 0 1280.000000 1159.000000"
 preserveAspectRatio="xMidYMid meet">
<metadata>
Created by potrace 1.15, written by Peter Selinger 2001-2017
</metadata>
<g transform="translate(0.000000,1159.000000) scale(0.100000,-0.100000)"
fill="#ff9800" stroke="none">
<path d="M9465 11580 c-151 -30 -280 -117 -369 -248 -221 -323 -67 -769 306
-887 62 -20 100 -25 176 -25 174 0 292 49 414 170 147 146 205 336 163 535
-46 217 -218 394 -440 450 -63 16 -183 18 -250 5z"/>
<path d="M6894 10905 c-4 -9 -2 -21 4 -27 16 -16 47 -5 47 17 0 26 -42 34 -51
10z"/>
<path d="M7130 10904 c-11 -12 -10 -18 3 -32 16 -15 18 -15 34 0 13 14 14 20
3 32 -7 9 -16 16 -20 16 -4 0 -13 -7 -20 -16z"/>
<path d="M6614 10895 c-4 -9 -2 -21 4 -27 15 -15 44 -1 40 19 -4 23 -36 29
-44 8z"/>
<path d="M6446 10884 c-8 -21 1 -34 24 -34 10 0 21 4 24 9 10 16 -5 41 -24 41
-10 0 -21 -7 -24 -16z"/>
<path d="M7293 10884 c-3 -8 -1 -20 5 -26 16 -16 42 -2 42 22 0 24 -38 28 -47
4z"/>
<path d="M7460 10874 c-11 -12 -11 -18 2 -30 16 -16 48 -9 48 10 0 13 -20 36
-31 36 -4 0 -12 -7 -19 -16z"/>
<path d="M6287 10874 c-12 -12 -8 -42 6 -47 21 -8 39 8 35 29 -3 19 -29 30
-41 18z"/>
<path d="M7624 10845 c-4 -9 -2 -21 4 -27 15 -15 44 -1 40 19 -4 23 -36 29
-44 8z"/>
<path d="M6117 10837 c-8 -21 8 -39 29 -35 27 5 25 42 -2 46 -12 2 -24 -3 -27
-11z"/>
<path d="M7784 10815 c-8 -19 3 -35 26 -35 19 0 30 17 23 38 -6 17 -42 15 -49
-3z"/>
<path d="M5954 10805 c-8 -20 4 -35 26 -35 23 0 32 13 24 34 -8 20 -43 21 -50
1z"/>
<path d="M7944 10779 c-3 -6 1 -18 10 -27 15 -15 17 -15 32 0 19 19 11 38 -16
38 -10 0 -22 -5 -26 -11z"/>
<path d="M5794 10765 c-8 -19 3 -35 26 -35 19 0 30 17 23 38 -6 17 -42 15 -49
-3z"/>
<path d="M8104 10735 c-4 -9 -2 -21 4 -27 16 -16 47 -5 47 17 0 26 -42 34 -51
10z"/>
<path d="M5640 10724 c-11 -12 -10 -18 3 -32 16 -15 18 -15 34 0 13 14 14 20
3 32 -7 9 -16 16 -20 16 -4 0 -13 -7 -20 -16z"/>
<path d="M8264 10685 c-8 -19 3 -35 26 -35 19 0 30 17 23 38 -6 17 -42 15 -49
-3z"/>
<path d="M5480 10674 c-11 -12 -10 -18 3 -32 16 -15 18 -15 34 0 13 14 14 20
3 32 -7 9 -16 16 -20 16 -4 0 -13 -7 -20 -16z"/>
<path d="M3678 10660 c-178 -30 -375 -149 -483 -291 -57 -76 -118 -199 -142
-289 -24 -89 -24 -300 1 -389 78 -284 300 -500 584 -567 93 -22 258 -22 352 0
162 39 327 142 430 269 370 457 124 1142 -453 1261 -80 17 -209 19 -289 6z"/>
<path d="M8424 10636 c-9 -24 4 -48 23 -44 12 2 18 12 18 28 0 29 -32 41 -41
16z"/>
<path d="M5327 10624 c-12 -12 -8 -42 6 -47 21 -8 39 8 35 29 -3 19 -29 30
-41 18z"/>
<path d="M8580 10575 c-15 -18 -6 -45 13 -45 8 0 20 7 27 15 10 12 10 18 0 30
-16 19 -24 19 -40 0z"/>
<path d="M5172 10538 c2 -15 10 -23 23 -23 30 0 27 39 -3 43 -20 3 -23 0 -20
-20z"/>
<path d="M10462 10530 c-402 -57 -715 -337 -824 -738 -31 -114 -31 -343 0
-466 72 -286 268 -525 533 -650 153 -73 237 -91 419 -90 130 0 169 4 240 23
333 89 591 334 693 656 48 153 58 297 31 456 -79 458 -459 794 -922 813 -59 3
-135 1 -170 -4z"/>
<path d="M8730 10504 c-11 -12 -10 -18 3 -32 16 -15 18 -15 34 0 13 14 14 20
3 32 -7 9 -16 16 -20 16 -4 0 -13 -7 -20 -16z"/>
<path d="M5025 10484 c-15 -15 -15 -19 -1 -32 17 -17 46 -10 46 11 0 8 -6 20
-14 26 -11 9 -18 8 -31 -5z"/>
<path d="M8877 10433 c-12 -11 -7 -33 8 -39 20 -8 45 13 38 32 -5 14 -34 19
-46 7z"/>
<path d="M4877 10414 c-4 -4 -7 -16 -7 -26 0 -13 7 -18 26 -18 21 0 25 4 22
22 -3 23 -27 35 -41 22z"/>
<path d="M9031 10360 c-19 -11 -9 -45 14 -45 13 0 21 8 23 21 3 23 -17 37 -37
24z"/>
<path d="M4730 10324 c-11 -12 -10 -18 3 -32 16 -15 18 -15 34 0 13 14 14 20
3 32 -7 9 -16 16 -20 16 -4 0 -13 -7 -20 -16z"/>
<path d="M9164 10266 c-8 -21 3 -36 27 -36 15 0 20 6 17 22 -4 27 -35 37 -44
14z"/>
<path d="M4584 10235 c-8 -19 3 -35 26 -35 19 0 30 17 23 38 -6 17 -42 15 -49
-3z"/>
<path d="M9307 10184 c-4 -4 -7 -16 -7 -26 0 -13 7 -18 26 -18 21 0 25 4 22
22 -3 23 -27 35 -41 22z"/>
<path d="M9434 10075 c-8 -19 3 -35 26 -35 19 0 30 17 23 38 -6 17 -42 15 -49
-3z"/>
<path d="M9564 9975 c-8 -20 4 -35 26 -35 23 0 32 13 24 34 -8 20 -43 21 -50
1z"/>
<path d="M6530 9510 c-1021 -57 -1978 -511 -2674 -1269 l-68 -74 -107 36
c-180 61 -421 109 -531 105 l-45 -1 55 -7 55 -8 -57 1 c-32 0 -61 -2 -65 -6
-9 -9 -41 -9 -47 1 -2 4 8 8 22 7 21 0 28 5 30 23 5 32 -27 42 -46 14 -13 -20
-23 -22 -98 -22 -176 0 -440 -53 -625 -126 -266 -104 -479 -243 -680 -444
-147 -146 -332 -401 -313 -431 4 -8 3 -10 -5 -5 -16 10 -101 -171 -151 -322
-44 -132 -74 -271 -89 -414 -12 -106 -14 -319 -5 -356 6 -21 8 -22 30 -7 42
27 154 87 154 82 0 -3 -30 -22 -67 -42 -151 -83 -365 -247 -513 -395 -297
-294 -514 -674 -616 -1076 -56 -223 -69 -331 -69 -589 0 -246 11 -346 62 -554
77 -321 238 -648 443 -906 462 -578 1168 -905 1905 -882 207 7 336 25 521 72
417 107 785 321 1096 637 l117 119 113 -93 c362 -298 797 -541 1213 -678 55
-18 105 -36 110 -40 6 -5 47 -18 93 -31 45 -12 80 -24 78 -27 -3 -2 -29 3 -59
12 -74 22 -75 21 -80 -21 -4 -35 -4 -35 -3 5 1 23 -2 42 -6 42 -12 0 -10 -52
7 -169 116 -794 711 -1437 1495 -1617 58 -13 181 -31 273 -40 157 -16 178 -16
331 0 188 19 328 49 475 101 139 49 294 122 286 135 -3 5 0 7 7 5 17 -7 164
84 271 169 101 78 222 197 303 296 84 103 186 260 180 277 -3 8 -1 11 4 8 12
-7 103 179 145 298 15 42 31 77 35 77 5 0 57 -20 117 -44 180 -72 368 -121
578 -152 159 -23 495 -23 648 -1 467 70 880 250 1212 529 549 460 843 1102
822 1798 -10 341 -74 602 -222 905 -230 473 -588 829 -1070 1065 -180 88 -307
135 -487 179 -102 25 -307 61 -346 61 -5 0 -13 43 -16 98 -38 549 -157 1011
-381 1479 -587 1224 -1785 2066 -3125 2197 -204 20 -441 26 -620 16z m-3542
-1217 c-27 -2 -69 -2 -95 0 -27 2 -5 3 47 3 52 0 74 -1 48 -3z m-170 -10 c-10
-2 -28 -2 -40 0 -13 2 -5 4 17 4 22 1 32 -1 23 -4z m470 0 c-10 -2 -28 -2 -40
0 -13 2 -5 4 17 4 22 1 32 -1 23 -4z m-545 -10 c-7 -2 -21 -2 -30 0 -10 3 -4
5 12 5 17 0 24 -2 18 -5z m610 0 c-7 -2 -21 -2 -30 0 -10 3 -4 5 12 5 17 0 24
-2 18 -5z m-670 -10 c-7 -2 -21 -2 -30 0 -10 3 -4 5 12 5 17 0 24 -2 18 -5z
m730 0 c-7 -2 -19 -2 -25 0 -7 3 -2 5 12 5 14 0 19 -2 13 -5z m-786 -9 c-3 -3
-12 -4 -19 -1 -8 3 -5 6 6 6 11 1 17 -2 13 -5z m891 -11 c36 -9 62 -18 57 -20
-6 -1 -41 6 -80 16 -38 11 -64 20 -57 20 7 1 43 -7 80 -16z m-973 -9 c-27 -7
-54 -13 -60 -13 -17 2 69 27 90 27 11 0 -2 -6 -30 -14z m-135 -39 c-46 -18
-64 -17 -25 0 17 8 37 14 45 14 8 0 -1 -7 -20 -14z m638 3 c17 -17 15 -53 -3
-68 -24 -20 -65 3 -65 34 0 37 43 59 68 34z m627 -3 c39 -17 21 -18 -25 0 -19
7 -28 14 -20 14 8 0 29 -6 45 -14z m-1360 -35 c-22 -10 -44 -18 -50 -18 -5 0
8 8 30 19 22 10 45 18 50 18 6 0 -8 -9 -30 -19z m1447 1 c5 -4 -35 -61 -88
-126 -52 -66 -139 -186 -192 -266 -132 -200 -125 -189 -111 -159 24 53 202
310 293 425 l96 119 -28 13 c-25 12 -25 12 -2 7 14 -4 28 -9 32 -13z m-1513
-25 c-10 -9 -189 -96 -189 -91 0 6 171 94 184 94 5 1 7 -1 5 -3z m753 -103
c23 -21 23 -36 -3 -59 -22 -19 -43 -13 -63 19 -8 12 -5 21 8 36 23 25 34 26
58 4z m-952 2 c0 -2 -10 -9 -22 -15 -22 -11 -22 -10 -4 4 21 17 26 19 26 11z
m-70 -43 c-189 -128 -371 -298 -486 -452 -76 -101 -97 -121 -35 -32 65 93 201
241 290 317 85 72 238 185 250 184 3 0 -5 -8 -19 -17z m981 -112 c19 -11 27
-54 10 -64 -4 -3 -6 6 -3 20 7 39 -24 56 -52 28 -9 -8 -16 -11 -16 -5 0 5 8
15 18 20 21 13 20 13 43 1z m-23 -71 c11 0 12 -2 4 -6 -15 -6 -42 14 -42 31 0
6 5 3 11 -6 5 -10 18 -18 27 -19z m-49 -108 c-17 -26 -4 -53 23 -49 29 4 36
37 12 56 -11 8 -13 12 -5 10 8 -2 19 -12 25 -21 22 -34 -28 -73 -59 -47 -18
15 -19 42 -3 58 17 17 20 15 7 -7z m456 -151 c-9 -16 -18 -30 -21 -30 -2 0 2
14 11 30 9 17 18 30 21 30 2 0 -2 -13 -11 -30z m-455 3 c-8 -3 -22 -11 -30
-17 -13 -10 -13 -9 -1 7 7 9 21 17 30 16 13 0 14 -1 1 -6z m40 -32 c0 -10 -9
-26 -19 -35 -22 -20 -54 -10 -65 21 -6 14 -2 13 14 -4 11 -13 25 -23 29 -23
16 0 33 30 28 50 -3 11 -1 18 4 14 5 -3 9 -13 9 -23z m360 -71 c-17 -33 -33
-60 -35 -60 -3 0 8 27 25 60 17 33 33 60 35 60 3 0 -8 -27 -25 -60z m-1911
-77 c-12 -21 -27 -42 -32 -48 -11 -11 9 29 31 63 24 37 25 25 1 -15z m1479 6
c-10 -5 -18 -18 -19 -27 0 -11 -2 -12 -6 -4 -6 15 14 42 31 42 6 0 3 -5 -6
-11z m52 -8 c5 -11 7 -27 4 -35 -8 -20 -52 -32 -66 -18 -8 8 -5 9 11 5 20 -5
51 11 51 28 0 4 -7 15 -16 23 -8 9 -11 16 -5 16 6 0 15 -9 21 -19z m323 -26
c-3 -9 -8 -14 -10 -11 -3 3 -2 9 2 15 9 16 15 13 8 -4z m-52 -111 c-16 -33
-30 -56 -31 -52 0 11 53 118 58 114 2 -2 -10 -30 -27 -62z m-1878 1 c-15 -30
-29 -53 -31 -51 -4 5 46 106 53 106 3 0 -7 -25 -22 -55z m1591 -71 c21 -21 20
-37 -4 -59 -23 -21 -44 -15 -60 17 -11 23 -11 23 8 -1 13 -16 25 -22 36 -18
25 10 31 36 12 55 -14 14 -19 15 -39 3 -20 -13 -21 -13 -8 2 17 21 35 22 55 1z
m242 -31 c-8 -15 -15 -25 -16 -21 0 12 23 58 27 54 3 -2 -2 -17 -11 -33z
m-1885 -10 c-12 -20 -14 -14 -5 12 4 9 9 14 11 11 3 -2 0 -13 -6 -23z m-20
-50 c-12 -20 -14 -14 -5 12 4 9 9 14 11 11 3 -2 0 -13 -6 -23z m1870 -24 c-11
-24 -20 -41 -20 -37 -1 12 31 89 35 85 3 -2 -4 -24 -15 -48z m-1897 -53 c-9
-26 -18 -45 -20 -43 -2 2 3 25 12 51 9 26 18 45 20 43 2 -2 -3 -25 -12 -51z
m1836 -112 c-21 -60 -39 -104 -39 -97 -1 16 71 215 75 210 2 -2 -14 -53 -36
-113z m-1863 34 c-3 -8 -6 -5 -6 6 -1 11 2 17 5 13 3 -3 4 -12 1 -19z m1725
-25 c21 -19 23 -44 6 -61 -18 -18 -42 -15 -62 7 -23 25 -5 63 33 70 3 1 13 -6
23 -16z m-1748 -67 c-3 -21 -8 -35 -11 -32 -2 2 -1 20 3 40 3 21 8 35 11 32 2
-2 1 -20 -3 -40z m-20 -95 c-4 -23 -9 -40 -11 -37 -3 3 -2 23 2 46 4 23 9 39
11 37 3 -2 2 -23 -2 -46z m1855 -10 c-7 -23 -14 -39 -16 -37 -3 2 1 23 8 45 7
23 14 39 16 37 3 -2 -1 -23 -8 -45z m-67 2 c10 -9 18 -21 18 -27 0 -6 -5 -3
-11 7 -6 10 -20 22 -32 27 -12 5 -16 9 -8 9 8 1 23 -6 33 -16z m-57 -13 c-4
-12 -1 -29 6 -38 12 -16 12 -16 -5 -1 -12 11 -16 24 -11 38 3 11 9 21 11 21 3
0 2 -9 -1 -20z m-1748 -77 c-3 -10 -5 -2 -5 17 0 19 2 27 5 18 2 -10 2 -26 0
-35z m1813 42 c0 -2 -10 -9 -22 -15 -22 -11 -22 -10 -4 4 21 17 26 19 26 11z
m28 -64 c-9 -41 -15 -50 -29 -46 -26 9 -51 -22 -39 -46 6 -10 17 -19 25 -19
16 0 21 -16 8 -23 -5 -2 -28 2 -53 9 -43 13 -43 13 -7 8 l38 -5 -16 25 c-15
23 -15 26 5 46 12 12 28 19 35 16 9 -3 17 11 25 45 7 28 14 48 16 46 3 -2 -1
-27 -8 -56z m-1851 -63 c-2 -13 -4 -3 -4 22 0 25 2 35 4 23 2 -13 2 -33 0 -45z
m1483 -7 c30 -4 -51 -5 -180 -3 -129 2 -242 5 -250 6 -30 7 376 4 430 -3z
m-480 -8 c-19 -2 -89 -13 -154 -23 -66 -11 -121 -18 -123 -16 -2 2 40 11 94
21 54 9 105 18 113 20 8 1 35 2 60 2 37 0 39 -1 10 -4z m588 -10 c-10 -2 -26
-2 -35 0 -10 3 -2 5 17 5 19 0 27 -2 18 -5z m97 -13 c27 -7 27 -8 5 -8 -14 0
-38 4 -55 8 -27 7 -27 8 -5 8 14 0 39 -4 55 -8z m-1698 -217 c-1 -43 -3 -10
-3 72 0 83 2 118 3 78 2 -40 2 -107 0 -150z m613 162 c-63 -18 -128 -38 -144
-44 -16 -7 -31 -9 -33 -7 -3 3 48 21 113 41 66 20 124 38 129 40 6 2 19 4 30
4 11 0 -32 -15 -95 -34z m-225 -75 c-22 -10 -44 -18 -50 -18 -5 0 8 8 30 19
22 10 45 18 50 18 6 0 -8 -9 -30 -19z m-105 -45 c-25 -13 -49 -24 -55 -24 -5
0 10 11 35 24 25 13 50 24 55 24 6 0 -10 -11 -35 -24z m7209 -4315 c74 -93
248 -264 344 -339 37 -29 67 -55 67 -57 0 -13 -136 102 -234 196 -84 82 -192
201 -243 270 -2 2 -37 -13 -79 -33 -41 -20 -78 -37 -82 -37 -10 1 141 79 153
79 6 1 39 -35 74 -79z m-294 -30 c-75 -35 -320 -126 -360 -135 -16 -3 24 14
90 38 66 24 163 62 215 84 109 47 144 55 55 13z m-430 -156 c-117 -43 -568
-135 -648 -133 -18 0 27 10 98 20 143 22 407 78 500 108 71 23 108 26 50 5z
m-2068 -40 c-3 -3 -12 -4 -19 -1 -8 3 -5 6 6 6 11 1 17 -2 13 -5z m113 -23
c41 -11 66 -19 55 -19 -24 0 -166 35 -145 36 8 1 49 -7 90 -17z m290 -50 c80
-12 192 -25 250 -31 l105 -9 -106 4 c-107 5 -363 37 -429 55 l-35 9 35 -4 c19
-2 100 -13 180 -24z m-573 -38 c-3 -10 -5 -2 -5 17 0 19 2 27 5 18 2 -10 2
-26 0 -35z m1536 10 c-13 -2 -35 -2 -50 0 -16 2 -5 4 22 4 28 0 40 -2 28 -4z
m-103 -9 c-60 -8 -128 -8 -123 -1 2 4 37 6 76 6 40 -1 61 -3 47 -5z m-227 -11
c-45 -2 -122 -2 -170 0 -48 1 -11 3 82 3 94 0 133 -2 88 -3z m-1196 -55 c-3
-7 -5 -2 -5 12 0 14 2 19 5 13 2 -7 2 -19 0 -25z m3676 -184 c48 -24 87 -50
87 -57 0 -8 -2 -9 -8 -1 -4 6 -43 30 -87 52 -77 38 -295 176 -295 187 0 2 48
-27 108 -66 59 -39 146 -91 195 -115z m-3666 134 c-3 -7 -5 -2 -5 12 0 14 2
19 5 13 2 -7 2 -19 0 -25z m10 -50 c-3 -7 -5 -2 -5 12 0 14 2 19 5 13 2 -7 2
-19 0 -25z m10 -40 c-3 -8 -6 -5 -6 6 -1 11 2 17 5 13 3 -3 4 -12 1 -19z m10
-40 c-3 -8 -6 -5 -6 6 -1 11 2 17 5 13 3 -3 4 -12 1 -19z m42 -123 c0 -5 -4
-3 -9 5 -5 8 -9 22 -9 30 0 16 17 -16 18 -35z m3661 8 c-11 -17 -11 -17 -6 0
3 10 6 24 7 30 0 9 2 9 5 0 3 -7 0 -20 -6 -30z m-3630 -88 c0 -5 -5 -3 -10 5
-5 8 -10 20 -10 25 0 6 5 3 10 -5 5 -8 10 -19 10 -25z m3601 8 c-12 -20 -14
-14 -5 12 4 9 9 14 11 11 3 -2 0 -13 -6 -23z m-3572 -78 c0 -5 -6 1 -14 15 -8
14 -14 30 -14 35 0 6 6 -1 14 -15 8 -14 14 -29 14 -35z m3552 28 c-12 -20 -14
-14 -5 12 4 9 9 14 11 11 3 -2 0 -13 -6 -23z m-3507 -120 c20 -40 34 -73 31
-73 -5 0 -75 136 -75 146 0 12 6 1 44 -73z m3457 8 c-17 -34 -33 -61 -36 -61
-3 0 10 29 27 65 18 35 34 63 36 61 2 -2 -11 -31 -27 -65z m-3401 -111 c6 -11
8 -20 6 -20 -3 0 -10 9 -16 20 -6 11 -8 20 -6 20 3 0 10 -9 16 -20z m3340 0
c-6 -11 -13 -20 -16 -20 -2 0 0 9 6 20 6 11 13 20 16 20 2 0 0 -9 -6 -20z
m-3240 -151 c79 -113 241 -284 350 -369 90 -71 104 -88 33 -38 -121 84 -380
368 -458 503 -24 42 0 12 75 -96z m3210 101 c-6 -11 -13 -20 -16 -20 -2 0 0 9
6 20 6 11 13 20 16 20 2 0 0 -9 -6 -20z m-41 -62 c-89 -128 -238 -293 -344
-382 -27 -22 14 22 91 99 77 77 169 179 203 228 35 48 65 87 68 87 2 0 -6 -15
-18 -32z m-404 -428 c-7 -11 -116 -89 -160 -114 -34 -20 -41 -26 90 71 77 56
79 57 70 43z m-2146 -167 c9 -10 -88 46 -136 79 -24 16 -43 31 -43 33 0 4 171
-102 179 -112z m1951 32 c0 -2 -13 -11 -30 -20 -38 -19 -40 -11 -2 9 31 17 32
18 32 11z m-1834 -93 c-5 -4 -86 36 -86 43 0 3 20 -5 45 -17 24 -12 43 -23 41
-26z m1744 43 c0 -6 -76 -45 -87 -45 -4 1 12 12 37 25 50 27 50 27 50 20z
m-1670 -70 c14 -8 21 -14 15 -14 -5 0 -21 6 -35 14 -14 8 -20 14 -15 14 6 0
21 -6 35 -14z m1530 0 c-14 -8 -29 -14 -35 -14 -5 0 1 6 15 14 14 8 30 14 35
14 6 0 -1 -6 -15 -14z m-1440 -37 c10 -6 7 -7 -10 -2 -14 3 -32 11 -40 16 -10
6 -7 7 10 2 14 -3 32 -11 40 -16z m1380 13 c-8 -5 -26 -11 -40 -15 -21 -5 -20
-3 5 9 32 15 60 20 35 6z m-1255 -51 c13 -5 14 -9 5 -9 -8 0 -24 4 -35 9 -13
5 -14 9 -5 9 8 0 24 -4 35 -9z m1110 0 c-11 -5 -27 -9 -35 -9 -9 0 -8 4 5 9
11 5 27 9 35 9 9 0 8 -4 -5 -9z m-1058 -16 c-3 -3 -12 -4 -19 -1 -8 3 -5 6 6
6 11 1 17 -2 13 -5z m988 -4 c-11 -5 -29 -8 -40 -8 -16 0 -15 2 5 8 34 11 60
11 35 0z m-948 -6 c-3 -3 -12 -4 -19 -1 -8 3 -5 6 6 6 11 1 17 -2 13 -5z m40
-10 c-3 -3 -12 -4 -19 -1 -8 3 -5 6 6 6 11 1 17 -2 13 -5z m823 -4 c-14 -4
-36 -8 -50 -8 -22 0 -22 1 5 8 17 4 39 8 50 8 16 0 15 -2 -5 -8z m-767 -7 c-7
-2 -21 -2 -30 0 -10 3 -4 5 12 5 17 0 24 -2 18 -5z m60 -10 c-7 -2 -21 -2 -30
0 -10 3 -4 5 12 5 17 0 24 -2 18 -5z m620 0 c-7 -2 -21 -2 -30 0 -10 3 -4 5
12 5 17 0 24 -2 18 -5z m-545 -10 c-10 -2 -28 -2 -40 0 -13 2 -5 4 17 4 22 1
32 -1 23 -4z m480 0 c-10 -2 -28 -2 -40 0 -13 2 -5 4 17 4 22 1 32 -1 23 -4z
m-370 -10 c-16 -2 -40 -2 -55 0 -16 2 -3 4 27 4 30 0 43 -2 28 -4z m270 0
c-16 -2 -40 -2 -55 0 -16 2 -3 4 27 4 30 0 43 -2 28 -4z"/>
<path d="M3003 8193 c-22 -8 -15 -51 8 -58 27 -9 42 6 37 36 -3 24 -21 32 -45
22z"/>
<path d="M2950 8026 c-27 -33 18 -72 48 -42 13 13 14 20 6 34 -15 23 -38 26
-54 8z"/>
<path d="M2855 6884 c-18 -18 -16 -33 7 -47 35 -22 66 21 36 51 -16 16 -23 15
-43 -4z"/>
<path d="M3414 9075 c-8 -20 4 -35 26 -35 25 0 35 17 20 35 -16 19 -39 19 -46
0z"/>
<path d="M3337 8943 c-12 -12 -7 -41 7 -46 19 -7 40 18 32 38 -6 15 -28 20
-39 8z"/>
<path d="M3252 8778 c2 -15 10 -23 23 -23 30 0 27 39 -3 43 -20 3 -23 0 -20
-20z"/>
<path d="M3180 8645 c-25 -30 10 -61 38 -33 17 17 15 26 -7 37 -14 8 -22 7
-31 -4z"/>
<path d="M10667 8554 c-10 -10 -9 -42 2 -48 18 -11 42 6 39 28 -3 21 -28 33
-41 20z"/>
<path d="M3107 8486 c-7 -19 18 -40 39 -32 8 3 14 14 12 23 -4 22 -43 29 -51
9z"/>
<path d="M10723 8384 c-3 -8 -1 -20 5 -26 16 -16 42 -2 42 22 0 24 -38 28 -47
4z"/>
<path d="M10780 8234 c-11 -12 -10 -18 3 -32 16 -15 18 -15 34 0 13 14 14 20
3 32 -7 9 -16 16 -20 16 -4 0 -13 -7 -20 -16z"/>
<path d="M10830 8074 c-11 -12 -10 -18 3 -32 16 -15 18 -15 34 0 13 14 14 20
3 32 -7 9 -16 16 -20 16 -4 0 -13 -7 -20 -16z"/>
<path d="M10870 7914 c-11 -12 -10 -18 3 -32 16 -15 18 -15 34 0 13 14 14 20
3 32 -7 9 -16 16 -20 16 -4 0 -13 -7 -20 -16z"/>
<path d="M10896 7751 c-11 -18 6 -42 28 -39 29 4 29 42 -1 46 -11 2 -24 -1
-27 -7z"/>
<path d="M10927 7594 c-4 -4 -7 -16 -7 -26 0 -13 7 -18 26 -18 21 0 25 4 22
22 -3 23 -27 35 -41 22z"/>
<path d="M10945 7424 c-15 -15 -15 -19 -1 -32 17 -17 46 -10 46 11 0 8 -6 20
-14 26 -11 9 -18 8 -31 -5z"/>
<path d="M10947 7147 c-8 -21 8 -39 29 -35 27 5 25 42 -2 46 -12 2 -24 -3 -27
-11z"/>
<path d="M10951 6940 c-19 -11 -9 -45 14 -45 13 0 21 8 23 21 3 23 -17 37 -37
24z"/>
<path d="M10927 6767 c-8 -21 8 -39 29 -35 27 5 25 42 -2 46 -12 2 -24 -3 -27
-11z"/>
<path d="M10910 6604 c-11 -12 -10 -18 3 -32 16 -15 18 -15 34 0 13 14 14 20
3 32 -7 9 -16 16 -20 16 -4 0 -13 -7 -20 -16z"/>
<path d="M10876 6441 c-11 -18 6 -42 28 -39 29 4 29 42 -1 46 -11 2 -24 -1
-27 -7z"/>
<path d="M10840 6265 c0 -22 4 -26 23 -23 14 2 22 10 22 23 0 13 -8 21 -22 23
-19 3 -23 -1 -23 -23z"/>
<path d="M10794 6115 c-8 -19 3 -35 26 -35 19 0 30 17 23 38 -6 17 -42 15 -49
-3z"/>
<path d="M10751 5970 c-19 -11 -9 -45 14 -45 13 0 21 8 23 21 3 23 -17 37 -37
24z"/>
<path d="M10684 5806 c-8 -21 3 -36 27 -36 15 0 20 6 17 22 -4 27 -35 37 -44
14z"/>
</g>
</svg>
