<?xml version="1.0" standalone="no"?>
<!DOCTYPE svg PUBLIC "-//W3C//DTD SVG 20010904//EN"
 "http://www.w3.org/TR/2001/REC-SVG-20010904/DTD/svg10.dtd">
<svg version="1.0" xmlns="http://www.w3.org/2000/svg"
 width="1230.000000pt" height="1280.000000pt" viewBox="0 0 1230.000000 1280.000000"
 preserveAspectRatio="xMidYMid meet">
<metadata>
Created by potrace 1.15, written by Peter Selinger 2001-2017
</metadata>
<g transform="translate(0.000000,1280.000000) scale(0.100000,-0.100000)"
fill="#2196f3" stroke="none">
<path d="M5528 12790 c-174 -28 -314 -89 -412 -181 -186 -173 -773 -1105
-1308 -2074 -824 -1492 -1863 -3638 -2725 -5630 -482 -1113 -798 -1924 -819
-2099 -3 -28 -30 -125 -60 -216 -149 -459 -198 -703 -198 -990 0 -195 13 -276
65 -410 34 -88 63 -123 308 -373 478 -487 858 -710 1354 -794 76 -13 158 -17
317 -17 337 0 455 21 1190 213 187 48 498 129 760 196 135 34 343 88 463 119
119 31 315 81 435 112 119 31 327 85 462 119 135 35 325 84 423 109 97 25 257
67 355 92 97 25 287 74 422 109 268 69 509 131 1185 305 85 22 225 58 310 80
85 22 225 58 310 80 85 22 225 58 310 80 662 171 913 236 1185 305 277 71 589
152 760 196 63 17 246 64 405 105 501 128 555 143 629 178 324 149 533 413
619 781 28 121 30 385 4 525 -24 131 -88 317 -146 425 -48 90 -380 626 -968
1565 -766 1224 -1298 2060 -2148 3380 -673 1043 -1960 2965 -2112 3152 -218
268 -563 463 -963 544 -90 18 -333 26 -412 14z"/>
</g>
</svg>
